<svg width="23" height="23" viewBox="0 0 23 23" fill="none" xmlns="http://www.w3.org/2000/svg">
<path d="M2.02148 2.69531C1.64934 2.69531 1.34766 2.39363 1.34766 2.02148C1.34766 1.64934 1.64934 1.34766 2.02148 1.34766C2.39363 1.34766 2.69531 1.64934 2.69531 2.02148C2.69531 2.39363 2.39363 2.69531 2.02148 2.69531Z" fill="#AA8CD1"/>
<path d="M0.673828 8.13086C0.301683 8.13086 0 7.82918 0 7.45703C0 7.08489 0.301683 6.7832 0.673828 6.7832C1.04597 6.7832 1.34766 7.08489 1.34766 7.45703C1.34766 7.82918 1.04597 8.13086 0.673828 8.13086Z" fill="#AA8CD1"/>
<path d="M11.4551 23C6.5435 23 2.18531 19.8255 0.609995 15.1679C0.513907 14.8843 0.617227 14.571 0.86268 14.3993C1.10746 14.2289 1.43714 14.2394 1.67141 14.4276C3.12369 15.5982 4.87604 16.2168 6.73828 16.2168C11.1971 16.2168 14.8691 12.5897 14.8691 8.13086C14.8691 5.34278 13.4088 2.74073 11.0372 1.24631C10.7832 1.08639 10.695 0.776475 10.7786 0.488256C10.8615 0.200037 11.155 0 11.4551 0C17.7715 0 23 5.18354 23 11.5C23 17.8165 17.7715 23 11.4551 23Z" fill="#AA8CD1"/>
<path d="M10.1074 5.43555C8.99273 5.43555 8.08594 6.34234 8.08594 7.45703C8.08594 7.82948 7.78456 8.13086 7.41211 8.13086C7.03966 8.13086 6.73828 7.82948 6.73828 7.45703C6.73828 6.34234 5.83149 5.43555 4.7168 5.43555C4.34435 5.43555 4.04297 5.13417 4.04297 4.76172C4.04297 4.38927 4.34435 4.08789 4.7168 4.08789C5.83149 4.08789 6.73828 3.13618 6.73828 2.02148C6.73828 1.64904 7.03966 1.34766 7.41211 1.34766C7.78456 1.34766 8.08594 1.64904 8.08594 2.02148C8.08594 3.13618 8.99273 4.08789 10.1074 4.08789C10.4799 4.08789 10.7812 4.38927 10.7812 4.76172C10.7812 5.13417 10.4799 5.43555 10.1074 5.43555Z" fill="#AA8CD1"/>
</svg>
