<svg width="55" height="55" viewBox="0 0 55 55" fill="none" xmlns="http://www.w3.org/2000/svg">
<g clip-path="url(#clip0)">
<path d="M11.4732 27.5001C11.4732 18.6629 18.6628 11.4733 27.5 11.4733C36.3371 11.4733 43.5267 18.6629 43.5267 27.5001C43.5267 36.3372 36.3371 43.5268 27.5 43.5268C18.6628 43.5268 11.4732 36.3371 11.4732 27.5001V27.5001Z" fill="#FFF599"/>
<path d="M47.0404 27.5001C47.0404 26.2526 48.0517 25.2413 49.2992 25.2413L52.7412 25.2413C53.9887 25.2413 55 26.2526 55 27.5001C55 28.7476 53.9887 29.7589 52.7412 29.7589L49.2992 29.7589C48.0517 29.7589 47.0404 28.7476 47.0404 27.5001V27.5001Z" fill="#FFF599"/>
<path d="M25.2412 5.70079L25.2412 2.2588C25.2412 1.0113 26.2525 -1.53265e-07 27.5 -9.87352e-08C28.7475 -4.42052e-08 29.7588 1.0113 29.7588 2.2588L29.7588 5.70079C29.7588 6.94829 28.7475 7.95959 27.5 7.95959C26.2524 7.95959 25.2412 6.94829 25.2412 5.70079Z" fill="#FFF599"/>
<path d="M-3.07351e-07 27.5001C-2.52821e-07 26.2525 1.0113 25.2413 2.2588 25.2413L5.70079 25.2413C6.94829 25.2413 7.95959 26.2525 7.95959 27.5001C7.95959 28.7476 6.94829 29.7588 5.70079 29.7588L2.2588 29.7588C1.0113 29.7588 -3.61882e-07 28.7476 -3.07351e-07 27.5001V27.5001Z" fill="#FFF599"/>
<path d="M25.2412 52.7412L25.2412 49.2992C25.2412 48.0517 26.2524 47.0404 27.5 47.0404C28.7475 47.0404 29.7588 48.0517 29.7588 49.2992L29.7588 52.7412C29.7588 53.9887 28.7475 55 27.5 55C26.2524 55 25.2412 53.9887 25.2412 52.7412Z" fill="#FFF599"/>
<path d="M41.3038 43.5626C41.3038 41.5683 43.7329 40.5384 45.1598 41.9654L46.3072 43.1128C47.1893 43.9949 47.1893 45.425 46.3072 46.3072C45.425 47.1893 43.9948 47.1893 43.1128 46.3072C42.0345 45.2289 41.3038 44.7247 41.3038 43.5626V43.5626Z" fill="#FFF599"/>
<path d="M41.3038 11.4374C41.3038 10.8592 41.5243 10.2812 41.9654 9.8402L43.1128 8.69284C43.9949 7.81072 45.4252 7.81072 46.3072 8.69284C47.1893 9.57495 47.1893 11.0051 46.3072 11.8872L45.1598 13.0346C43.7327 14.4618 41.3038 13.4315 41.3038 11.4374V11.4374Z" fill="#FFF599"/>
<path d="M8.03123 10.2901C8.03123 8.29583 10.4603 7.26592 11.8872 8.69295L13.0346 9.84031C13.9167 10.7224 13.9167 12.1526 13.0346 13.0347C12.1525 13.9168 10.7222 13.9168 9.8402 13.0347C8.76189 11.9563 8.03123 11.4521 8.03123 10.2901Z" fill="#FFF599"/>
<path d="M8.03123 44.71C8.03123 44.1318 8.25173 43.5538 8.69284 43.1128L9.8402 41.9654C10.7223 41.0833 12.1526 41.0833 13.0346 41.9654C13.9167 42.8475 13.9167 44.2777 13.0346 45.1598L11.8872 46.3072C10.4601 47.7344 8.03123 46.7041 8.03123 44.71Z" fill="#FFF599"/>
</g>
<defs>
<clipPath id="clip0">
<rect width="55" height="55" fill="white" transform="translate(55) rotate(90)"/>
</clipPath>
</defs>
</svg>
